<?xml version="1.0" encoding="UTF-8" standalone="no"?>
<!-- Created with Inkscape (http://www.inkscape.org/) -->

<svg
   width="881.65497"
   height="983.35132"
   viewBox="0 0 233.2712 260.17837"
   version="1.1"
   id="svg5"
   xml:space="preserve"
   inkscape:version="1.2.2 (b0a8486541, 2022-12-01)"
   sodipodi:docname="bazaar.svg"
   inkscape:export-filename="../GitHub/BaZaar-docs/static/img/favicon.ico.png"
   inkscape:export-xdpi="96"
   inkscape:export-ydpi="96"
   xmlns:inkscape="http://www.inkscape.org/namespaces/inkscape"
   xmlns:sodipodi="http://sodipodi.sourceforge.net/DTD/sodipodi-0.dtd"
   xmlns:xlink="http://www.w3.org/1999/xlink"
   xmlns="http://www.w3.org/2000/svg"
   xmlns:svg="http://www.w3.org/2000/svg"><sodipodi:namedview
     id="namedview7"
     pagecolor="#ffffff"
     bordercolor="#000000"
     borderopacity="0.25"
     inkscape:showpageshadow="2"
     inkscape:pageopacity="0.0"
     inkscape:pagecheckerboard="0"
     inkscape:deskcolor="#d1d1d1"
     inkscape:document-units="px"
     showgrid="false"
     inkscape:zoom="0.2973261"
     inkscape:cx="623.8941"
     inkscape:cy="432.1854"
     inkscape:window-width="1600"
     inkscape:window-height="827"
     inkscape:window-x="0"
     inkscape:window-y="0"
     inkscape:window-maximized="1"
     inkscape:current-layer="layer1" /><defs
     id="defs2"><linearGradient
       inkscape:collect="always"
       id="linearGradient1100"><stop
         style="stop-color:#ff00ff;stop-opacity:1"
         offset="0"
         id="stop1096" /><stop
         style="stop-color:#00ffff;stop-opacity:1"
         offset="1"
         id="stop1098" /></linearGradient><linearGradient
       inkscape:collect="always"
       xlink:href="#linearGradient1100"
       id="linearGradient1102"
       x1="115.77966"
       y1="167.37712"
       x2="156.05084"
       y2="120.18432"
       gradientUnits="userSpaceOnUse"
       gradientTransform="matrix(4.1516737,0,0,4.1516737,-414.26092,-448.96569)" /><filter
       inkscape:collect="always"
       style="color-interpolation-filters:sRGB"
       id="filter4184"
       x="-0.051050985"
       y="-0.045293125"
       width="1.102102"
       height="1.0905862"><feGaussianBlur
         inkscape:collect="always"
         stdDeviation="3.7809207"
         id="feGaussianBlur4186" /></filter></defs><g
     inkscape:label="Layer 1"
     inkscape:groupmode="layer"
     id="layer1"
     transform="translate(-26.239396,-21.684576)"><g
       id="g5708"
       transform="matrix(1.259442,0,0,1.259442,-42.671515,-39.37648)"><path
         d="M 105.35581,197.80994 226.7737,115.724 c 2.26178,-1.71212 3.43345,-3.20117 4.1418,-5.84468 l 5.02265,-18.74482 c 0.90151,-3.364452 -0.5703,-5.561846 -3.93476,-6.463377 L 109.68131,51.895057 c -3.36446,-0.901529 -5.73774,0.265655 -6.63927,3.630021 L 97.890602,74.75057 c -0.837104,3.124137 0.570266,5.561805 3.934758,6.463335 l 87.47592,23.439055 -121.482281,82.32636 c -2.437667,1.40741 -3.433487,3.20112 -4.141785,5.84462 l -4.958245,18.50451 c -0.90153,3.36449 0.505885,5.80216 3.630021,6.63931 l 125.9269,33.74197 c 3.1241,0.83715 5.5618,-0.57026 6.4633,-3.93475 l 5.08709,-18.98514 c 0.90143,-3.36446 -0.50597,-5.80221 -3.63006,-6.6393 z"
         style="font-weight:500;font-size:56.66px;font-family:'Publica Sans Round';-inkscape-font-specification:'Publica Sans Round Medium';letter-spacing:0.79375px;mix-blend-mode:normal;fill:#1a1a1a;fill-opacity:1;stroke-width:14.5778;filter:url(#filter4184)"
         id="path3401"
         transform="matrix(0.94548899,0,0,0.94548899,8.0308004,8.2733397)" /><path
         d="M 103.43672,186.88678 218.236,109.27543 c 2.13849,-1.61879 3.24629,-3.02667 3.91602,-5.52608 l 4.74886,-17.723022 c 0.85237,-3.181053 -0.53921,-5.258664 -3.72027,-6.111052 L 107.52643,48.925866 c -3.18106,-0.852385 -5.42497,0.251174 -6.27736,3.432145 l -4.870623,18.177491 c -0.791472,2.953837 0.539181,5.258626 3.720273,6.111012 L 182.80624,98.807891 67.946078,176.64655 c -2.304788,1.33069 -3.246324,3.02662 -3.916012,5.52602 L 59.3421,199.66838 c -0.852387,3.18109 0.478308,5.48588 3.432144,6.2774 l 119.062496,31.90266 c 2.9538,0.79152 5.25862,-0.53917 6.11098,-3.72026 l 4.80979,-17.95024 c 0.85229,-3.18106 -0.47839,-5.48593 -3.43218,-6.27739 z"
         style="font-weight:500;font-size:56.66px;font-family:'Publica Sans Round';-inkscape-font-specification:'Publica Sans Round Medium';letter-spacing:0.79375px;fill:url(#linearGradient1102);fill-opacity:1;stroke-width:13.7831"
         id="path5063" /></g></g></svg>
